<?xml version="1.0" encoding="utf-8"?>
<?xml-stylesheet type="text/css" href="/assets/css/app.css"?>
<!DOCTYPE svg PUBLIC "-//W3C//DTD SVG 1.1//EN" "http://www.w3.org/Graphics/SVG/1.1/DTD/svg11.dtd">
<svg version="1.1" id="Layer_1" xmlns="http://www.w3.org/2000/svg" xmlns:xlink="http://www.w3.org/1999/xlink" x="0" y="0"
	 viewBox="0 0 200.25 66" enable-background="new 0 0 200.25 66" xml:space="preserve">
<g class="logo--central">
	<path class="logo--central__path" fill="#000" d="M7.069,9.509H4.934V5.214h2.135c0.721,0,1.285,0.193,1.697,0.58
		c0.41,0.385,0.617,0.912,0.617,1.58c0,0.652-0.205,1.17-0.611,1.556C8.364,9.315,7.797,9.509,7.069,9.509 M10.45,12.259
		c0.488-0.232,0.916-0.521,1.285-0.867c0.369-0.349,0.676-0.736,0.918-1.164c0.246-0.428,0.43-0.894,0.555-1.395
		c0.123-0.502,0.185-1.025,0.185-1.575c0-0.745-0.127-1.454-0.379-2.126c-0.254-0.674-0.635-1.26-1.144-1.762
		c-0.51-0.501-1.147-0.898-1.908-1.195C9.198,1.88,8.307,1.732,7.288,1.732H0.977v17.558h3.957v-6.402h1.531l4.344,6.402h4.744
		L10.45,12.259z M3.389,10.747h3.823c0.549,0,1.058-0.079,1.511-0.236c0.463-0.158,0.848-0.377,1.178-0.671
		c0.324-0.288,0.579-0.648,0.756-1.07c0.18-0.424,0.272-0.914,0.272-1.459c0-0.497-0.081-0.951-0.239-1.351
		c-0.162-0.408-0.393-0.747-0.709-1.039C9.668,4.631,9.276,4.402,8.817,4.238c-0.46-0.165-1-0.249-1.605-0.249H3.389V10.747z
		 M12.108,18.193c-0.144,0-0.266-0.065-0.344-0.184l-4.529-6.397H3.389v5.852c0,0.271-0.162,0.433-0.433,0.433
		c-0.272,0-0.433-0.162-0.433-0.433V3.557c0-0.271,0.161-0.432,0.433-0.432h4.256c0.665,0,1.284,0.095,1.839,0.284
		c0.556,0.187,1.047,0.465,1.458,0.826c0.412,0.362,0.732,0.806,0.952,1.32c0.222,0.514,0.334,1.104,0.334,1.756
		c0,0.635-0.099,1.207-0.293,1.7c-0.197,0.498-0.467,0.928-0.804,1.277c-0.337,0.349-0.743,0.635-1.207,0.848
		c-0.395,0.18-0.818,0.31-1.259,0.388l4.229,5.983c0.098,0.136,0.12,0.287,0.063,0.436C12.49,18.034,12.391,18.193,12.108,18.193"/>
	<path class="logo--central__path" fill="#000" d="M160.297,9.509h-2.136V5.214h2.136c0.721,0,1.284,0.193,1.696,0.58
		c0.41,0.385,0.617,0.912,0.617,1.58c0,0.652-0.205,1.17-0.611,1.556C161.592,9.315,161.024,9.509,160.297,9.509 M163.678,12.259
		c0.487-0.232,0.916-0.521,1.285-0.867c0.368-0.349,0.676-0.736,0.918-1.164c0.245-0.428,0.43-0.894,0.555-1.395
		c0.123-0.502,0.185-1.025,0.185-1.575c0-0.745-0.127-1.454-0.379-2.126c-0.254-0.674-0.635-1.26-1.143-1.762
		c-0.51-0.501-1.148-0.898-1.908-1.195c-0.764-0.295-1.655-0.443-2.674-0.443h-6.311v17.558h3.957v-6.402h1.531l4.344,6.402h4.744
		L163.678,12.259z M156.616,10.747h3.823c0.549,0,1.058-0.079,1.511-0.236c0.463-0.158,0.849-0.377,1.178-0.671
		c0.324-0.288,0.579-0.648,0.757-1.07c0.18-0.424,0.271-0.914,0.271-1.459c0-0.497-0.081-0.951-0.239-1.351
		c-0.161-0.408-0.393-0.747-0.709-1.039c-0.313-0.289-0.705-0.518-1.164-0.682c-0.46-0.165-1-0.249-1.604-0.249h-3.823V10.747z
		 M165.335,18.193c-0.144,0-0.266-0.065-0.344-0.184l-4.528-6.397h-3.847v5.852c0,0.271-0.162,0.433-0.433,0.433
		c-0.272,0-0.434-0.162-0.434-0.433V3.557c0-0.271,0.161-0.432,0.434-0.432h4.256c0.665,0,1.284,0.095,1.839,0.284
		c0.556,0.187,1.047,0.465,1.458,0.826c0.412,0.362,0.732,0.806,0.952,1.32c0.222,0.514,0.334,1.104,0.334,1.756
		c0,0.635-0.099,1.207-0.293,1.7c-0.197,0.498-0.467,0.928-0.804,1.277c-0.337,0.349-0.743,0.635-1.207,0.848
		c-0.396,0.18-0.818,0.31-1.26,0.388l4.229,5.983c0.098,0.136,0.12,0.287,0.063,0.436C165.718,18.034,165.618,18.193,165.335,18.193
		"/>
	<path class="logo--central__path" fill="#000" d="M192.835,15.613V1.731h-3.985v17.559h10.064v-3.677H192.835z M197.243,17.897
		h-6.4c-0.272,0-0.433-0.162-0.433-0.433V3.557c0-0.271,0.16-0.432,0.433-0.432c0.27,0,0.431,0.161,0.431,0.432v13.477h5.97
		c0.27,0,0.433,0.161,0.433,0.431C197.676,17.735,197.514,17.897,197.243,17.897"/>
	<path class="logo--central__path" fill="#000" d="M73.084,15.613V1.731H69.1v17.559h10.063v-3.677H73.084z M77.493,17.897h-6.4
		c-0.272,0-0.433-0.162-0.433-0.433V3.557c0-0.271,0.161-0.432,0.433-0.432c0.27,0,0.431,0.161,0.431,0.432v13.477h5.969
		c0.271,0,0.433,0.161,0.433,0.431C77.926,17.735,77.764,17.897,77.493,17.897"/>
	<path class="logo--central__path" fill="#000" d="M43.008,8.21h-0.012l-3.678-6.478H34.77l6.182,10.244v7.314h3.985v-7.34
		L51.12,1.732h-4.383L43.008,8.21z M47.958,2.944c0.173,0,0.311,0.078,0.388,0.22c0.078,0.14,0.072,0.29-0.016,0.434l-4.953,8.329
		v5.537c0,0.272-0.161,0.433-0.433,0.433c-0.271,0-0.433-0.161-0.433-0.433v-5.613l-4.876-8.256
		c-0.088-0.137-0.093-0.289-0.013-0.432c0.072-0.14,0.211-0.219,0.387-0.219c0.165,0,0.294,0.075,0.375,0.218l4.573,7.761
		l4.628-7.764C47.659,3.023,47.792,2.944,47.958,2.944"/>
	<path class="logo--central__path" fill="#000" d="M98.911,13.84c-0.215,0.394-0.494,0.746-0.842,1.054
		c-0.348,0.309-0.77,0.559-1.266,0.752c-0.498,0.194-1.084,0.289-1.761,0.289c-0.721,0-1.379-0.132-1.973-0.398
		c-0.596-0.266-1.105-0.638-1.529-1.119c-0.426-0.479-0.756-1.051-0.991-1.715c-0.236-0.664-0.353-1.394-0.353-2.191
		c0-0.797,0.117-1.528,0.353-2.192c0.235-0.664,0.565-1.238,0.991-1.722c0.424-0.484,0.933-0.863,1.529-1.133
		c0.594-0.27,1.252-0.404,1.973-0.404c0.65,0,1.224,0.094,1.722,0.283c0.496,0.188,0.922,0.437,1.274,0.746
		c0.349,0.308,0.636,0.658,0.859,1.048c0.223,0.388,0.395,0.786,0.516,1.188l3.959-0.707c-0.199-0.994-0.549-1.885-1.049-2.674
		c-0.502-0.787-1.117-1.455-1.852-1.998c-0.732-0.544-1.56-0.96-2.486-1.247c-0.926-0.286-1.906-0.431-2.943-0.431
		c-0.866,0-1.688,0.103-2.469,0.309c-0.779,0.205-1.506,0.503-2.178,0.895c-0.674,0.388-1.279,0.858-1.818,1.406
		c-0.541,0.549-1.004,1.166-1.391,1.849c-0.385,0.687-0.68,1.432-0.887,2.239c-0.205,0.804-0.306,1.654-0.306,2.545
		c0,0.9,0.101,1.75,0.306,2.551c0.207,0.802,0.502,1.544,0.887,2.23c0.387,0.685,0.85,1.303,1.391,1.851
		c0.539,0.548,1.144,1.017,1.818,1.409c0.672,0.389,1.399,0.686,2.178,0.892c0.781,0.205,1.603,0.309,2.469,0.309
		c1.037,0,2.017-0.149,2.943-0.444c0.926-0.294,1.754-0.719,2.486-1.273c0.735-0.553,1.35-1.223,1.852-2.012
		c0.5-0.787,0.85-1.678,1.049-2.673l-3.959-0.707C99.292,13.049,99.124,13.446,98.911,13.84 M100.381,14.392
		c0.081-0.158,0.216-0.239,0.393-0.239c0.165,0,0.297,0.075,0.375,0.212c0.074,0.13,0.081,0.272,0.02,0.41
		c-0.291,0.6-0.663,1.124-1.106,1.562c-0.437,0.435-0.931,0.804-1.468,1.094c-0.527,0.286-1.105,0.503-1.715,0.643
		c-0.603,0.139-1.221,0.21-1.838,0.21c-1.071,0-2.07-0.197-2.972-0.584c-0.9-0.387-1.689-0.934-2.343-1.628
		c-0.653-0.694-1.168-1.523-1.529-2.467c-0.36-0.943-0.543-1.984-0.543-3.093c0-1.11,0.183-2.151,0.543-3.095
		c0.361-0.943,0.875-1.773,1.53-2.465c0.657-0.696,1.445-1.244,2.342-1.629c0.902-0.387,1.901-0.583,2.972-0.583
		c0.635,0,1.265,0.072,1.872,0.215c0.614,0.145,1.191,0.364,1.715,0.649c0.527,0.291,1.013,0.657,1.442,1.088
		c0.433,0.437,0.796,0.945,1.081,1.51c0.095,0.193,0.043,0.342-0.016,0.433c-0.056,0.088-0.168,0.195-0.376,0.195
		c-0.118,0-0.28-0.043-0.379-0.252c-0.269-0.497-0.6-0.941-0.983-1.313c-0.384-0.371-0.812-0.682-1.272-0.925
		c-0.46-0.245-0.957-0.431-1.48-0.553c-0.522-0.122-1.062-0.183-1.604-0.183c-1.019,0-1.941,0.188-2.74,0.559
		c-0.797,0.37-1.486,0.876-2.047,1.505c-0.558,0.633-0.991,1.373-1.287,2.202c-0.297,0.831-0.448,1.72-0.448,2.642
		c0,0.92,0.151,1.809,0.448,2.643c0.297,0.829,0.73,1.569,1.288,2.198c0.561,0.631,1.249,1.138,2.046,1.507
		c0.802,0.37,1.724,0.558,2.74,0.558c0.559,0,1.114-0.064,1.649-0.189c0.533-0.125,1.04-0.316,1.505-0.57
		c0.462-0.251,0.888-0.572,1.265-0.951C99.833,15.331,100.142,14.888,100.381,14.392"/>
	<path class="logo--central__path" fill="#000" d="M110.056,15.665v-3.65h6.168V8.569h-6.168V5.356h6.694V1.731h-10.68v17.559
		h10.81v-3.625H110.056z M115.21,17.897h-7.146c-0.272,0-0.434-0.162-0.434-0.433V3.557c0-0.271,0.161-0.432,0.434-0.432h7.015
		c0.272,0,0.434,0.161,0.434,0.432s-0.161,0.433-0.434,0.433h-6.582V9.86h6.058c0.271,0,0.433,0.162,0.433,0.432
		c0,0.271-0.162,0.432-0.433,0.432h-6.058v6.309h6.714c0.27,0,0.431,0.161,0.431,0.431C115.641,17.735,115.479,17.897,115.21,17.897
		"/>
	<path class="logo--central__path" fill="#000" d="M131.609,1.732v11.003h-0.011L124,1.732h-3.778v17.558h3.959V8.288h0.015
		l7.594,11.003h3.781V1.732H131.609z M134.021,17.464c0,0.122-0.043,0.225-0.128,0.307c-0.083,0.083-0.187,0.126-0.305,0.126h-0.939
		c-0.152,0-0.275-0.063-0.354-0.182l-9.391-13.726h-0.271v13.475c0,0.271-0.161,0.433-0.434,0.433c-0.271,0-0.433-0.162-0.433-0.433
		V3.557c0-0.271,0.162-0.432,0.433-0.432h0.938c0.153,0,0.275,0.063,0.356,0.182l9.391,13.727h0.273V3.557
		c0-0.271,0.16-0.432,0.43-0.432c0.27,0,0.433,0.161,0.433,0.432V17.464z"/>
	<path class="logo--central__path" fill="#000" d="M138.333,1.732v3.675h4.564v13.883h3.984V5.407h4.565V1.732H138.333z
		 M149.773,3.989h-4.451v13.475c0,0.272-0.161,0.433-0.434,0.433c-0.271,0-0.433-0.161-0.433-0.433V3.989h-4.452
		c-0.271,0-0.433-0.162-0.433-0.433c0-0.271,0.161-0.432,0.433-0.432h9.77c0.271,0,0.432,0.161,0.432,0.432
		C150.205,3.827,150.044,3.989,149.773,3.989"/>
	<path class="logo--central__path" fill="#000" d="M4.233,65.032c-0.498,0-0.955-0.077-1.357-0.231
		c-0.401-0.156-0.747-0.381-1.03-0.668c-0.279-0.291-0.498-0.645-0.646-1.055c-0.149-0.408-0.223-0.87-0.223-1.373v-5.67
		c0-0.168,0.1-0.269,0.266-0.269c0.168,0,0.267,0.101,0.267,0.269v5.67c0,0.437,0.065,0.835,0.194,1.18
		c0.125,0.341,0.308,0.638,0.543,0.878c0.236,0.239,0.515,0.42,0.855,0.552c0.338,0.126,0.719,0.191,1.131,0.191
		c0.414,0,0.795-0.065,1.133-0.192c0.336-0.131,0.623-0.315,0.853-0.551c0.235-0.239,0.418-0.535,0.545-0.878
		c0.129-0.348,0.194-0.745,0.194-1.18v-5.67c0-0.168,0.099-0.269,0.265-0.269c0.168,0,0.268,0.101,0.268,0.269v5.67
		c0,0.503-0.074,0.965-0.225,1.373c-0.148,0.409-0.365,0.766-0.646,1.055c-0.283,0.289-0.629,0.512-1.028,0.668
		C5.19,64.955,4.733,65.032,4.233,65.032"/>
	<path class="logo--central__path" fill="#000" d="M13.002,64.922c-0.168,0-0.268-0.101-0.268-0.269v-8.572
		c0-0.167,0.1-0.267,0.268-0.267h0.5c0.125,0,0.189,0.062,0.221,0.115l5.537,8.419h0.054v-8.314c0-0.168,0.1-0.267,0.268-0.267
		c0.166,0,0.266,0.099,0.266,0.267v8.575c0,0.167-0.1,0.268-0.266,0.268h-0.455c-0.043,0-0.082-0.009-0.117-0.024
		c-0.045-0.021-0.078-0.05-0.104-0.087l-5.543-8.424h-0.093v8.311C13.271,64.821,13.17,64.922,13.002,64.922"/>
	<path class="logo--central__path" fill="#000" d="M25.424,64.922c-0.166,0-0.266-0.101-0.266-0.269v-8.619
		c0-0.168,0.1-0.267,0.266-0.267c0.168,0,0.27,0.099,0.27,0.267v8.619C25.694,64.821,25.592,64.922,25.424,64.922"/>
	<path class="logo--central__path" fill="#000" d="M34.149,64.877h-0.637c-0.115,0-0.203-0.062-0.248-0.175l-3.09-8.583
		c-0.029-0.086-0.021-0.165,0.028-0.238c0.035-0.054,0.103-0.113,0.23-0.113c0.055,0,0.106,0.017,0.151,0.05
		c0.045,0.033,0.078,0.079,0.097,0.137l3.014,8.395h0.281l3.02-8.403c0.039-0.114,0.125-0.178,0.242-0.178
		c0.086,0,0.162,0.036,0.219,0.102c0.037,0.048,0.078,0.13,0.035,0.248l-3.088,8.581C34.358,64.815,34.268,64.877,34.149,64.877"/>
	<path class="logo--central__path" fill="#000" d="M46.612,64.877h-4.369c-0.168,0-0.268-0.101-0.268-0.268v-8.528
		c0-0.17,0.098-0.267,0.268-0.267h4.291c0.074,0,0.137,0.023,0.189,0.071c0.053,0.058,0.076,0.117,0.076,0.188
		c0,0.076-0.025,0.144-0.074,0.193c-0.051,0.049-0.115,0.075-0.191,0.075H42.51v3.601h3.706c0.068,0,0.13,0.026,0.181,0.074
		c0.053,0.05,0.076,0.111,0.076,0.185c0,0.076-0.023,0.142-0.072,0.192c-0.053,0.05-0.113,0.076-0.185,0.076H42.51v3.878h4.102
		c0.076,0,0.139,0.025,0.191,0.077c0.049,0.048,0.075,0.114,0.075,0.19c0,0.071-0.026,0.135-0.075,0.186
		C46.751,64.853,46.686,64.877,46.612,64.877"/>
	<path class="logo--central__path" fill="#000" d="M57.383,64.921c-0.084,0-0.155-0.038-0.205-0.111l-2.825-3.801h-2.021v3.645
		c0,0.168-0.1,0.267-0.268,0.267c-0.166,0-0.267-0.099-0.267-0.267v-8.572c0-0.17,0.098-0.268,0.267-0.268h2.34
		c0.416,0,0.797,0.059,1.135,0.174c0.346,0.114,0.647,0.285,0.893,0.506c0.25,0.22,0.445,0.492,0.582,0.808
		c0.136,0.317,0.207,0.679,0.207,1.074c0,0.397-0.063,0.753-0.186,1.057c-0.123,0.308-0.295,0.572-0.51,0.791
		c-0.214,0.218-0.472,0.392-0.767,0.519c-0.244,0.104-0.508,0.177-0.787,0.216l2.627,3.539c0.058,0.084,0.07,0.172,0.037,0.267
		C57.607,64.837,57.542,64.921,57.383,64.921 M52.333,60.481h2.072c0.336,0,0.647-0.049,0.928-0.145
		c0.273-0.093,0.514-0.233,0.715-0.414c0.195-0.177,0.351-0.398,0.461-0.658c0.109-0.256,0.166-0.555,0.166-0.889
		c0-0.297-0.051-0.574-0.147-0.825c-0.099-0.249-0.238-0.458-0.429-0.637c-0.19-0.178-0.428-0.317-0.709-0.413
		c-0.286-0.103-0.616-0.154-0.985-0.154h-2.072V60.481z"/>
	<path class="logo--central__path" fill="#000" d="M64.5,65.032c-0.314,0-0.619-0.028-0.908-0.086
		c-0.295-0.057-0.574-0.158-0.826-0.302c-0.252-0.143-0.477-0.341-0.668-0.586c-0.192-0.247-0.334-0.56-0.424-0.935
		c-0.018-0.088-0.004-0.165,0.043-0.229c0.027-0.045,0.092-0.106,0.22-0.106c0.079,0,0.135,0.021,0.176,0.063
		c0.035,0.03,0.063,0.075,0.076,0.126c0.135,0.499,0.383,0.882,0.743,1.137c0.361,0.26,0.888,0.391,1.568,0.391
		c0.309,0,0.605-0.039,0.881-0.116c0.273-0.078,0.512-0.195,0.711-0.349c0.199-0.155,0.357-0.351,0.471-0.58
		c0.115-0.23,0.173-0.508,0.173-0.826c0-0.334-0.062-0.62-0.185-0.85c-0.123-0.232-0.289-0.435-0.494-0.6
		c-0.211-0.165-0.457-0.301-0.733-0.406c-0.277-0.107-0.578-0.208-0.886-0.295c-0.292-0.079-0.6-0.176-0.913-0.286
		c-0.314-0.112-0.593-0.262-0.836-0.438c-0.25-0.188-0.453-0.422-0.603-0.698c-0.154-0.277-0.232-0.633-0.232-1.054
		c0-0.401,0.076-0.754,0.224-1.049c0.149-0.293,0.35-0.54,0.594-0.733c0.244-0.188,0.529-0.334,0.849-0.427
		c0.6-0.176,1.299-0.177,1.86-0.043c0.273,0.062,0.527,0.164,0.75,0.302c0.223,0.135,0.416,0.315,0.578,0.535
		c0.16,0.213,0.281,0.473,0.363,0.768c0.026,0.091,0.012,0.17-0.037,0.24c-0.035,0.051-0.101,0.108-0.221,0.108
		c-0.062,0-0.119-0.019-0.164-0.054c-0.046-0.04-0.074-0.084-0.089-0.136c-0.125-0.421-0.356-0.753-0.684-0.983
		c-0.328-0.233-0.787-0.351-1.365-0.351c-0.297,0-0.582,0.039-0.844,0.117c-0.254,0.076-0.479,0.192-0.666,0.344
		c-0.188,0.152-0.336,0.342-0.445,0.563c-0.108,0.226-0.162,0.493-0.162,0.792c0,0.311,0.058,0.576,0.171,0.788
		c0.118,0.213,0.276,0.392,0.469,0.532c0.197,0.147,0.422,0.267,0.694,0.366c0.265,0.099,0.548,0.189,0.841,0.272
		c0.346,0.091,0.686,0.203,1.014,0.333c0.324,0.128,0.615,0.295,0.865,0.498c0.252,0.201,0.455,0.452,0.604,0.749
		c0.15,0.302,0.224,0.658,0.224,1.088c0,0.409-0.078,0.77-0.228,1.076c-0.151,0.306-0.358,0.558-0.615,0.755
		c-0.254,0.194-0.553,0.342-0.889,0.435C65.215,64.985,64.863,65.032,64.5,65.032"/>
	<path class="logo--central__path" fill="#000" d="M72.366,64.922c-0.166,0-0.268-0.101-0.268-0.269v-8.619
		c0-0.168,0.102-0.267,0.268-0.267c0.168,0,0.268,0.099,0.268,0.267v8.619C72.634,64.821,72.534,64.922,72.366,64.922"/>
	<path class="logo--central__path" fill="#000" d="M80.413,64.922c-0.168,0-0.268-0.101-0.268-0.269v-8.311h-2.72
		c-0.078,0-0.145-0.027-0.192-0.077c-0.047-0.051-0.07-0.116-0.07-0.191c0-0.067,0.021-0.128,0.066-0.179
		c0.055-0.055,0.121-0.08,0.196-0.08h5.978c0.074,0,0.139,0.025,0.19,0.073c0.05,0.056,0.072,0.115,0.072,0.186
		c0,0.077-0.023,0.144-0.07,0.191c-0.049,0.05-0.116,0.077-0.192,0.077h-2.722v8.311C80.681,64.821,80.581,64.922,80.413,64.922"/>
	<path class="logo--central__path" fill="#000" d="M90.541,64.922c-0.168,0-0.268-0.101-0.268-0.269v-3.755l-2.976-4.731
		c-0.065-0.116-0.039-0.211-0.008-0.267c0.033-0.061,0.1-0.133,0.234-0.133c0.104,0,0.184,0.047,0.231,0.133l2.793,4.431
		l2.836-4.437c0.041-0.08,0.123-0.127,0.226-0.127c0.108,0,0.192,0.049,0.237,0.134c0.045,0.084,0.043,0.176-0.008,0.264
		l-3.031,4.734v3.754C90.808,64.821,90.709,64.922,90.541,64.922"/>
	<path class="logo--central__path" fill="#000" d="M107.67,65.033c-0.646,0-1.25-0.12-1.793-0.356
		c-0.545-0.238-1.018-0.569-1.401-0.983c-0.392-0.414-0.698-0.914-0.918-1.485c-0.217-0.574-0.326-1.2-0.326-1.861
		c0-0.664,0.109-1.291,0.326-1.86c0.218-0.571,0.524-1.072,0.918-1.489c0.386-0.415,0.858-0.746,1.401-0.984
		c0.541-0.235,1.143-0.354,1.793-0.354c0.65,0,1.253,0.119,1.794,0.354c0.54,0.236,1.014,0.568,1.403,0.984
		c0.396,0.422,0.703,0.922,0.914,1.489c0.217,0.563,0.328,1.19,0.328,1.86c0,0.668-0.111,1.293-0.328,1.861
		c-0.215,0.566-0.521,1.065-0.914,1.485c-0.388,0.414-0.86,0.746-1.401,0.983C108.92,64.913,108.316,65.033,107.67,65.033
		 M107.67,56.186c-0.6,0-1.149,0.111-1.633,0.336c-0.476,0.221-0.888,0.524-1.222,0.907c-0.333,0.377-0.594,0.824-0.772,1.326
		c-0.176,0.497-0.266,1.034-0.266,1.592c0,0.558,0.09,1.093,0.266,1.593c0.181,0.502,0.439,0.946,0.772,1.321
		c0.33,0.377,0.742,0.684,1.222,0.909c0.479,0.223,1.029,0.335,1.633,0.335c0.605,0,1.154-0.112,1.636-0.335
		c0.479-0.226,0.89-0.534,1.222-0.909c0.332-0.38,0.592-0.825,0.771-1.321c0.176-0.507,0.266-1.041,0.266-1.593
		c0-0.555-0.09-1.09-0.266-1.592c-0.179-0.497-0.438-0.942-0.771-1.326c-0.334-0.381-0.746-0.685-1.222-0.907
		C108.822,56.297,108.272,56.186,107.67,56.186"/>
	<path class="logo--central__path" fill="#000" d="M117.126,64.922c-0.171,0-0.267-0.099-0.267-0.269v-8.572
		c0-0.17,0.096-0.267,0.267-0.267h4.29c0.074,0,0.14,0.025,0.189,0.072c0.053,0.056,0.079,0.115,0.079,0.187
		c0,0.077-0.028,0.146-0.077,0.193c-0.048,0.05-0.115,0.075-0.191,0.075h-4.022v3.633h3.705c0.07,0,0.134,0.026,0.183,0.076
		c0.051,0.051,0.078,0.112,0.078,0.185c0,0.076-0.027,0.142-0.078,0.192c-0.051,0.049-0.112,0.073-0.183,0.073h-3.705v4.152
		C117.394,64.821,117.294,64.922,117.126,64.922"/>
	<path class="logo--central__path" fill="#000" d="M136.022,64.877h-3.912c-0.168,0-0.269-0.101-0.269-0.268v-8.575
		c0-0.168,0.101-0.267,0.269-0.267c0.168,0,0.267,0.099,0.267,0.267v8.314h3.645c0.077,0,0.145,0.027,0.192,0.079
		c0.049,0.046,0.075,0.112,0.075,0.189c0,0.071-0.026,0.135-0.077,0.186C136.167,64.851,136.1,64.877,136.022,64.877"/>
	<path class="logo--central__path" fill="#000" d="M144.651,65.033c-0.646,0-1.25-0.12-1.794-0.356
		c-0.547-0.239-1.02-0.571-1.403-0.983c-0.394-0.418-0.699-0.918-0.916-1.485c-0.217-0.572-0.328-1.198-0.328-1.861
		c0-0.666,0.111-1.293,0.328-1.86c0.215-0.569,0.52-1.069,0.916-1.489c0.386-0.415,0.858-0.746,1.403-0.984
		c0.539-0.235,1.144-0.354,1.794-0.354c0.647,0,1.252,0.119,1.793,0.354c0.545,0.238,1.018,0.569,1.403,0.984
		c0.393,0.42,0.701,0.92,0.916,1.489c0.217,0.563,0.328,1.188,0.328,1.86c0,0.669-0.111,1.296-0.328,1.861
		c-0.217,0.569-0.524,1.067-0.916,1.485c-0.384,0.412-0.857,0.744-1.403,0.983C145.898,64.913,145.296,65.033,144.651,65.033
		 M144.651,56.186c-0.601,0-1.148,0.111-1.634,0.336c-0.474,0.22-0.887,0.524-1.224,0.907c-0.332,0.379-0.592,0.825-0.771,1.326
		c-0.178,0.498-0.266,1.034-0.266,1.592c0,0.556,0.088,1.091,0.266,1.593c0.179,0.501,0.439,0.944,0.771,1.321
		c0.334,0.377,0.746,0.685,1.224,0.909c0.481,0.223,1.029,0.335,1.634,0.335c0.604,0,1.151-0.112,1.633-0.335
		c0.48-0.226,0.892-0.532,1.224-0.909c0.332-0.377,0.59-0.821,0.77-1.321c0.176-0.498,0.266-1.035,0.266-1.593
		c0-0.561-0.09-1.096-0.266-1.592c-0.179-0.5-0.438-0.947-0.77-1.326c-0.336-0.381-0.748-0.687-1.224-0.907
		C145.799,56.297,145.251,56.186,144.651,56.186"/>
	<path class="logo--central__path" fill="#000" d="M154.211,64.922c-0.166,0-0.266-0.101-0.266-0.269v-8.572
		c0-0.167,0.1-0.267,0.266-0.267h0.5c0.125,0,0.189,0.062,0.222,0.115l5.539,8.419h0.054v-8.314c0-0.168,0.1-0.267,0.266-0.267
		c0.168,0,0.269,0.099,0.269,0.267v8.575c0,0.167-0.101,0.268-0.269,0.268h-0.455c-0.045,0-0.082-0.009-0.116-0.025
		c-0.043-0.021-0.076-0.049-0.103-0.086l-5.543-8.424h-0.095v8.311C154.479,64.821,154.379,64.922,154.211,64.922"/>
	<path class="logo--central__path" fill="#000" d="M168.866,64.877h-2.231c-0.167,0-0.267-0.1-0.267-0.267v-8.529
		c0-0.167,0.1-0.267,0.267-0.267h2.231c0.702,0,1.352,0.092,1.93,0.271c0.584,0.177,1.097,0.457,1.524,0.834
		c0.423,0.372,0.757,0.851,0.992,1.418c0.233,0.565,0.352,1.24,0.352,2.01c0,0.765-0.119,1.437-0.352,1.998
		c-0.235,0.566-0.569,1.042-0.992,1.415c-0.426,0.376-0.939,0.661-1.524,0.844C170.218,64.785,169.568,64.877,168.866,64.877
		 M166.905,64.348h1.961c0.69,0,1.313-0.09,1.85-0.269c0.527-0.181,0.972-0.443,1.324-0.78c0.351-0.337,0.621-0.757,0.802-1.249
		c0.184-0.496,0.276-1.066,0.276-1.703s-0.093-1.21-0.276-1.704c-0.181-0.492-0.451-0.914-0.802-1.253
		c-0.354-0.338-0.799-0.6-1.324-0.776c-0.53-0.181-1.153-0.272-1.85-0.272h-1.961V64.348z"/>
	<path class="logo--central__path" fill="#000" d="M182.504,65.033c-0.645,0-1.247-0.12-1.79-0.356
		c-0.548-0.238-1.021-0.569-1.406-0.983c-0.392-0.418-0.699-0.918-0.916-1.485c-0.217-0.572-0.328-1.198-0.328-1.861
		c0-0.666,0.111-1.293,0.328-1.86c0.215-0.569,0.522-1.069,0.916-1.489c0.388-0.416,0.86-0.746,1.406-0.984
		c0.538-0.235,1.143-0.354,1.79-0.354c0.65,0,1.253,0.119,1.791,0.354c0.544,0.236,1.017,0.568,1.406,0.984
		c0.394,0.42,0.701,0.92,0.916,1.489c0.217,0.568,0.328,1.194,0.328,1.86c0,0.662-0.111,1.289-0.328,1.861
		c-0.217,0.569-0.524,1.067-0.916,1.485c-0.388,0.414-0.86,0.746-1.406,0.983C183.752,64.913,183.15,65.033,182.504,65.033
		 M182.504,56.186c-0.6,0-1.149,0.111-1.633,0.336c-0.477,0.221-0.888,0.524-1.222,0.907c-0.334,0.382-0.594,0.827-0.772,1.326
		c-0.178,0.5-0.268,1.035-0.268,1.592c0,0.553,0.09,1.089,0.268,1.593c0.179,0.498,0.438,0.943,0.772,1.321
		c0.33,0.377,0.742,0.684,1.222,0.909c0.48,0.223,1.029,0.335,1.633,0.335c0.605,0,1.154-0.112,1.636-0.335
		c0.478-0.226,0.888-0.532,1.222-0.909c0.332-0.381,0.592-0.825,0.77-1.321c0.176-0.509,0.266-1.045,0.266-1.593
		c0-0.551-0.09-1.086-0.266-1.592c-0.179-0.496-0.436-0.941-0.77-1.328c-0.336-0.381-0.748-0.686-1.222-0.905
		C183.654,56.297,183.106,56.186,182.504,56.186"/>
	<path class="logo--central__path" fill="#000" d="M192.066,64.922c-0.168,0-0.266-0.099-0.266-0.269v-8.572
		c0-0.17,0.098-0.267,0.266-0.267h0.503c0.098,0,0.176,0.041,0.221,0.115l5.535,8.419h0.054v-8.314c0-0.168,0.1-0.267,0.268-0.267
		c0.166,0,0.267,0.099,0.267,0.267v8.575c0,0.167-0.101,0.268-0.267,0.268h-0.457c-0.041,0-0.077-0.009-0.114-0.023
		c-0.043-0.021-0.078-0.049-0.105-0.086l-5.545-8.426h-0.091v8.311C192.335,64.821,192.235,64.922,192.066,64.922"/>
	<path class="logo--central__path" fill="#000" d="M3.518,37.49c-0.307,0-0.611-0.028-0.906-0.086
		c-0.299-0.059-0.576-0.16-0.83-0.302c-0.25-0.144-0.475-0.342-0.668-0.588c-0.192-0.248-0.334-0.562-0.422-0.933
		c-0.018-0.086-0.006-0.159,0.039-0.227c0.033-0.049,0.099-0.108,0.226-0.108c0.071,0,0.129,0.021,0.172,0.06
		c0.041,0.04,0.067,0.082,0.078,0.133c0.135,0.496,0.383,0.878,0.743,1.133c0.357,0.261,0.886,0.391,1.568,0.391
		c0.312,0,0.609-0.038,0.883-0.116c0.269-0.077,0.51-0.194,0.711-0.348c0.197-0.153,0.355-0.349,0.469-0.58
		c0.115-0.231,0.173-0.511,0.173-0.827c0-0.335-0.062-0.621-0.183-0.854c-0.123-0.229-0.291-0.43-0.496-0.594
		c-0.209-0.164-0.455-0.3-0.733-0.409c-0.285-0.109-0.584-0.208-0.888-0.294c-0.29-0.078-0.598-0.176-0.911-0.286
		c-0.31-0.111-0.589-0.26-0.836-0.439c-0.25-0.187-0.453-0.421-0.603-0.696c-0.154-0.28-0.232-0.635-0.232-1.057
		c0-0.405,0.074-0.746,0.224-1.047c0.149-0.295,0.348-0.54,0.594-0.733c0.242-0.19,0.529-0.336,0.849-0.431
		c0.592-0.174,1.278-0.18,1.86-0.043c0.277,0.066,0.529,0.169,0.752,0.306c0.221,0.135,0.414,0.315,0.576,0.535
		c0.162,0.217,0.283,0.475,0.363,0.769c0.026,0.088,0.014,0.168-0.035,0.236c-0.037,0.05-0.103,0.109-0.223,0.109
		c-0.066,0-0.123-0.02-0.166-0.056c-0.043-0.031-0.072-0.077-0.085-0.134c-0.126-0.418-0.356-0.75-0.684-0.981
		c-0.33-0.233-0.787-0.352-1.365-0.352c-0.301,0-0.586,0.04-0.846,0.118c-0.258,0.075-0.482,0.192-0.668,0.342
		c-0.184,0.152-0.334,0.342-0.443,0.566c-0.108,0.223-0.162,0.489-0.162,0.79c0,0.31,0.058,0.576,0.173,0.788
		c0.118,0.216,0.272,0.39,0.467,0.532c0.195,0.146,0.428,0.269,0.694,0.367c0.263,0.098,0.537,0.186,0.841,0.27
		c0.358,0.098,0.7,0.21,1.016,0.336c0.322,0.127,0.613,0.293,0.863,0.493c0.252,0.205,0.455,0.458,0.604,0.754
		c0.148,0.295,0.222,0.66,0.222,1.088c0,0.411-0.076,0.773-0.226,1.077c-0.151,0.304-0.358,0.557-0.613,0.754
		c-0.26,0.196-0.559,0.343-0.891,0.435C4.227,37.442,3.875,37.49,3.518,37.49"/>
	<path class="logo--central__path" fill="#000" d="M13.002,37.49c-0.648,0-1.252-0.119-1.793-0.355
		c-0.541-0.237-1.016-0.567-1.404-0.985c-0.391-0.419-0.699-0.918-0.916-1.483c-0.217-0.569-0.326-1.196-0.326-1.863
		c0-0.669,0.109-1.297,0.326-1.864c0.217-0.567,0.525-1.067,0.916-1.486c0.394-0.42,0.867-0.751,1.406-0.984
		c0.543-0.236,1.146-0.356,1.791-0.356c0.473,0,0.92,0.063,1.328,0.185c0.41,0.128,0.777,0.301,1.094,0.518
		c0.324,0.223,0.603,0.487,0.832,0.787c0.23,0.305,0.408,0.641,0.525,1.001c0.041,0.121,0.004,0.205-0.031,0.253
		c-0.059,0.068-0.133,0.101-0.223,0.101c-0.113,0-0.197-0.062-0.23-0.169c-0.104-0.302-0.256-0.591-0.455-0.856
		c-0.195-0.261-0.438-0.49-0.715-0.679c-0.281-0.192-0.604-0.344-0.957-0.45c-0.361-0.108-0.754-0.163-1.168-0.163
		c-0.605,0-1.154,0.114-1.631,0.337c-0.48,0.221-0.892,0.526-1.226,0.909c-0.332,0.378-0.59,0.826-0.768,1.324
		c-0.18,0.498-0.27,1.034-0.27,1.592c0,0.553,0.09,1.089,0.27,1.593c0.178,0.502,0.436,0.948,0.768,1.323
		c0.334,0.38,0.748,0.685,1.226,0.908c0.477,0.222,1.027,0.335,1.631,0.335c0.422,0,0.816-0.055,1.172-0.161
		c0.351-0.106,0.676-0.258,0.963-0.453c0.279-0.194,0.523-0.426,0.72-0.69c0.2-0.26,0.354-0.551,0.459-0.861
		c0.034-0.105,0.116-0.167,0.231-0.167c0.117,0,0.184,0.055,0.221,0.101c0.037,0.043,0.074,0.125,0.035,0.252
		c-0.121,0.37-0.299,0.711-0.531,1.016c-0.235,0.306-0.518,0.572-0.842,0.795c-0.328,0.224-0.699,0.397-1.1,0.516
		C13.924,37.429,13.477,37.49,13.002,37.49"/>
	<path class="logo--central__path" fill="#000" d="M26.163,37.381c-0.168,0-0.268-0.102-0.268-0.27v-4.185h-5.687v4.185
		c0,0.168-0.1,0.27-0.268,0.27c-0.168,0-0.267-0.102-0.267-0.27V28.49c0-0.168,0.099-0.268,0.267-0.268
		c0.168,0,0.268,0.1,0.268,0.268v3.909h5.687V28.49c0-0.168,0.1-0.268,0.268-0.268c0.168,0,0.266,0.1,0.266,0.268v8.621
		C26.429,37.279,26.331,37.381,26.163,37.381"/>
	<path class="logo--central__path" fill="#000" d="M33.754,37.491c-0.65,0-1.252-0.121-1.791-0.357
		c-0.543-0.235-1.018-0.565-1.406-0.983c-0.391-0.416-0.699-0.916-0.916-1.485c-0.219-0.57-0.328-1.196-0.328-1.863
		c0-0.668,0.109-1.294,0.328-1.863c0.217-0.57,0.525-1.07,0.916-1.486c0.394-0.42,0.867-0.751,1.406-0.985
		c0.541-0.235,1.145-0.355,1.791-0.355s1.25,0.12,1.791,0.355c0.539,0.234,1.012,0.565,1.406,0.985
		c0.391,0.416,0.699,0.916,0.916,1.486c0.219,0.569,0.328,1.196,0.328,1.863c0,0.666-0.109,1.292-0.328,1.863
		c-0.217,0.569-0.525,1.069-0.916,1.485c-0.388,0.418-0.863,0.749-1.406,0.983C35.006,37.37,34.402,37.491,33.754,37.491
		 M33.754,28.641c-0.605,0-1.154,0.113-1.631,0.337c-0.482,0.223-0.894,0.527-1.224,0.906c-0.334,0.381-0.592,0.826-0.772,1.326
		c-0.178,0.498-0.268,1.035-0.268,1.592c0,0.554,0.09,1.09,0.268,1.594c0.182,0.502,0.439,0.947,0.772,1.321
		c0.33,0.379,0.742,0.686,1.224,0.908c0.477,0.223,1.026,0.335,1.631,0.335c0.604,0,1.154-0.112,1.633-0.335
		c0.478-0.222,0.89-0.527,1.224-0.908c0.332-0.377,0.59-0.821,0.768-1.321c0.178-0.502,0.27-1.039,0.27-1.594
		c0-0.559-0.092-1.094-0.268-1.59c-0.178-0.5-0.436-0.945-0.77-1.326c-0.334-0.381-0.744-0.687-1.224-0.908
		C34.9,28.751,34.367,28.641,33.754,28.641"/>
	<path class="logo--central__path" fill="#000" d="M45.065,37.491c-0.648,0-1.25-0.121-1.791-0.357
		c-0.543-0.235-1.016-0.567-1.404-0.983c-0.391-0.416-0.7-0.915-0.918-1.485c-0.215-0.567-0.326-1.194-0.326-1.863
		c0-0.67,0.111-1.297,0.326-1.863c0.218-0.57,0.527-1.07,0.918-1.486c0.394-0.418,0.867-0.75,1.404-0.985
		c0.545-0.235,1.146-0.355,1.791-0.355c0.648,0,1.252,0.12,1.793,0.355c0.539,0.234,1.012,0.565,1.406,0.985
		c0.391,0.417,0.697,0.917,0.916,1.486c0.217,0.569,0.328,1.195,0.328,1.863c0,0.667-0.111,1.292-0.328,1.863
		c-0.219,0.569-0.525,1.068-0.916,1.485c-0.39,0.418-0.863,0.749-1.406,0.983C46.319,37.37,45.717,37.491,45.065,37.491
		 M45.065,28.641c-0.605,0-1.152,0.113-1.629,0.337c-0.482,0.222-0.894,0.527-1.226,0.908c-0.333,0.379-0.592,0.824-0.77,1.324
		c-0.178,0.5-0.268,1.035-0.268,1.592c0,0.553,0.09,1.088,0.268,1.594c0.18,0.502,0.439,0.947,0.77,1.321
		c0.332,0.381,0.744,0.687,1.226,0.908c0.477,0.223,1.025,0.335,1.629,0.335c0.607,0,1.156-0.112,1.633-0.335
		c0.48-0.222,0.892-0.527,1.226-0.908c0.332-0.375,0.59-0.819,0.768-1.321c0.178-0.506,0.269-1.042,0.269-1.594
		c0-0.557-0.091-1.092-0.269-1.592c-0.176-0.5-0.436-0.945-0.768-1.324c-0.332-0.381-0.744-0.687-1.226-0.908
		C46.221,28.754,45.672,28.641,45.065,28.641"/>
	<path class="logo--central__path" fill="#000" d="M56.573,37.335h-3.914c-0.166,0-0.266-0.1-0.266-0.268V28.49
		c0-0.168,0.1-0.268,0.266-0.268c0.168,0,0.269,0.1,0.269,0.268v8.316h3.645c0.076,0,0.143,0.026,0.191,0.074
		c0.051,0.053,0.077,0.118,0.077,0.193c0,0.07-0.028,0.136-0.077,0.185C56.716,37.309,56.649,37.335,56.573,37.335"/>
	<path class="logo--central__path" fill="#000" d="M66.85,37.491c-0.648,0-1.252-0.121-1.791-0.357
		c-0.545-0.235-1.016-0.565-1.404-0.983c-0.393-0.418-0.701-0.917-0.918-1.485c-0.217-0.568-0.328-1.195-0.328-1.863
		c0-0.669,0.111-1.297,0.328-1.863c0.217-0.569,0.525-1.069,0.918-1.486c0.392-0.42,0.865-0.751,1.404-0.985
		c0.543-0.235,1.146-0.355,1.791-0.355c0.648,0,1.252,0.12,1.793,0.355c0.539,0.234,1.012,0.565,1.406,0.985
		c0.391,0.417,0.697,0.917,0.916,1.486c0.217,0.566,0.326,1.193,0.326,1.863c0,0.669-0.109,1.295-0.326,1.863
		c-0.217,0.569-0.525,1.068-0.916,1.485c-0.39,0.418-0.863,0.748-1.406,0.983C68.104,37.37,67.5,37.491,66.85,37.491 M66.85,28.641
		c-0.605,0-1.152,0.113-1.631,0.337c-0.48,0.221-0.892,0.527-1.224,0.908c-0.334,0.381-0.594,0.826-0.77,1.324
		c-0.178,0.498-0.268,1.033-0.268,1.592c0,0.556,0.09,1.092,0.268,1.594c0.178,0.5,0.436,0.944,0.77,1.321
		c0.332,0.381,0.744,0.687,1.222,0.908c0.481,0.223,1.029,0.335,1.633,0.335c0.605,0,1.154-0.112,1.633-0.335
		c0.48-0.223,0.892-0.529,1.226-0.908c0.332-0.375,0.59-0.819,0.768-1.321c0.178-0.503,0.268-1.04,0.268-1.594
		c0-0.558-0.09-1.094-0.268-1.592c-0.176-0.5-0.436-0.945-0.768-1.324c-0.334-0.381-0.746-0.686-1.226-0.908
		C68.006,28.754,67.457,28.641,66.85,28.641"/>
	<path class="logo--central__path" fill="#000" d="M74.442,37.381c-0.166,0-0.268-0.102-0.268-0.27v-8.575
		c0-0.168,0.102-0.268,0.268-0.268h4.293c0.072,0,0.141,0.026,0.189,0.073c0.051,0.053,0.079,0.117,0.079,0.189
		c0,0.075-0.026,0.139-0.075,0.19c-0.05,0.051-0.115,0.078-0.193,0.078H74.71v3.633h3.707c0.072,0,0.134,0.026,0.185,0.076
		c0.049,0.047,0.074,0.111,0.074,0.184c0,0.077-0.025,0.143-0.076,0.193c-0.047,0.049-0.111,0.074-0.183,0.074H74.71v4.153
		C74.71,37.279,74.612,37.381,74.442,37.381"/>
	<path class="logo--central__path" fill="#000" d="M87.737,37.49c-0.305,0-0.611-0.028-0.908-0.086
		c-0.297-0.059-0.576-0.16-0.828-0.302c-0.252-0.145-0.477-0.343-0.666-0.588c-0.192-0.244-0.334-0.558-0.424-0.933
		c-0.02-0.083-0.006-0.155,0.039-0.226c0.033-0.05,0.098-0.109,0.226-0.109c0.069,0,0.127,0.019,0.172,0.06
		c0.043,0.042,0.067,0.086,0.078,0.136c0.133,0.492,0.383,0.874,0.743,1.13c0.359,0.261,0.886,0.391,1.568,0.391
		c0.314,0,0.609-0.038,0.881-0.116c0.273-0.077,0.512-0.194,0.713-0.348c0.195-0.153,0.355-0.349,0.47-0.58
		c0.114-0.233,0.172-0.512,0.172-0.827c0-0.333-0.062-0.621-0.183-0.854c-0.123-0.229-0.291-0.43-0.498-0.594
		c-0.205-0.164-0.451-0.3-0.731-0.409c-0.285-0.109-0.584-0.208-0.886-0.294c-0.305-0.082-0.612-0.179-0.913-0.286
		c-0.31-0.112-0.591-0.26-0.836-0.439c-0.25-0.187-0.453-0.421-0.603-0.697c-0.154-0.281-0.232-0.636-0.232-1.056
		c0-0.397,0.074-0.75,0.222-1.047c0.151-0.295,0.35-0.54,0.596-0.733c0.248-0.193,0.527-0.335,0.851-0.431
		c0.588-0.172,1.272-0.18,1.86-0.043c0.275,0.066,0.527,0.169,0.748,0.306c0.223,0.137,0.418,0.317,0.58,0.535
		c0.158,0.214,0.279,0.473,0.361,0.769c0.024,0.088,0.012,0.168-0.035,0.236c-0.088,0.123-0.283,0.14-0.387,0.054
		c-0.046-0.033-0.078-0.082-0.087-0.139c-0.129-0.421-0.354-0.745-0.686-0.977c-0.328-0.233-0.787-0.352-1.363-0.352
		c-0.303,0-0.586,0.04-0.846,0.118c-0.26,0.077-0.479,0.188-0.668,0.342c-0.186,0.154-0.336,0.344-0.443,0.566
		c-0.108,0.221-0.162,0.487-0.162,0.79c0,0.31,0.058,0.576,0.173,0.788c0.118,0.215,0.27,0.389,0.467,0.532
		c0.195,0.146,0.43,0.269,0.695,0.367c0.258,0.097,0.534,0.185,0.84,0.27c0.356,0.098,0.698,0.21,1.014,0.336
		c0.324,0.127,0.615,0.293,0.865,0.493c0.25,0.204,0.455,0.458,0.605,0.753c0.148,0.298,0.224,0.664,0.224,1.089
		c0,0.408-0.076,0.77-0.226,1.077c-0.153,0.304-0.36,0.557-0.615,0.754c-0.26,0.196-0.559,0.344-0.889,0.435
		C88.446,37.442,88.094,37.49,87.737,37.49"/>
	<path class="logo--central__path" fill="#000" d="M93.633,37.38c-0.166,0-0.265-0.101-0.265-0.268v-8.576
		c0-0.168,0.099-0.268,0.265-0.268h2.243c0.421,0,0.812,0.061,1.16,0.18c0.345,0.122,0.652,0.297,0.908,0.523
		c0.258,0.232,0.451,0.507,0.592,0.837c0.138,0.326,0.209,0.701,0.209,1.116c0,0.414-0.071,0.789-0.209,1.113
		c-0.141,0.33-0.334,0.605-0.592,0.835c-0.252,0.227-0.557,0.403-0.908,0.523c-0.346,0.12-0.737,0.18-1.16,0.18h-1.975v3.537
		C93.901,37.279,93.801,37.38,93.633,37.38 M93.901,33.05h1.975c0.334,0,0.652-0.047,0.943-0.139
		c0.281-0.09,0.527-0.224,0.732-0.401c0.204-0.177,0.358-0.394,0.475-0.663c0.115-0.27,0.17-0.571,0.17-0.923
		c0-0.352-0.057-0.664-0.17-0.928c-0.115-0.267-0.27-0.483-0.477-0.663c-0.201-0.176-0.447-0.31-0.73-0.4
		c-0.281-0.09-0.598-0.135-0.943-0.135h-1.975V33.05z"/>
	<path class="logo--central__path" fill="#000" d="M105.927,37.335h-4.37c-0.168,0-0.268-0.1-0.268-0.268v-8.531
		c0-0.168,0.1-0.268,0.268-0.268h4.291c0.073,0,0.137,0.025,0.188,0.073c0.053,0.053,0.078,0.117,0.078,0.189
		c0,0.075-0.025,0.139-0.074,0.19c-0.053,0.051-0.117,0.078-0.192,0.078h-4.026v3.6h3.708c0.076,0,0.14,0.028,0.189,0.08
		c0.047,0.048,0.069,0.111,0.069,0.181c0,0.074-0.022,0.138-0.072,0.19c-0.049,0.05-0.112,0.077-0.187,0.077h-3.708v3.88h4.104
		c0.075,0,0.139,0.025,0.19,0.073c0.051,0.054,0.079,0.119,0.079,0.194c0,0.07-0.03,0.136-0.079,0.186
		C106.067,37.31,106.002,37.335,105.927,37.335"/>
	<path class="logo--central__path" fill="#000" d="M113.486,37.335h-4.368c-0.168,0-0.269-0.1-0.269-0.268v-8.531
		c0-0.168,0.101-0.268,0.269-0.268h4.291c0.071,0,0.139,0.026,0.188,0.073c0.053,0.053,0.078,0.117,0.078,0.189
		c0,0.075-0.025,0.139-0.076,0.19c-0.051,0.051-0.115,0.078-0.19,0.078h-4.024v3.6h3.706c0.074,0,0.138,0.028,0.187,0.078
		c0.048,0.048,0.072,0.111,0.072,0.183c0,0.074-0.024,0.139-0.072,0.19c-0.051,0.05-0.114,0.077-0.187,0.077h-3.706v3.88h4.102
		c0.074,0,0.142,0.025,0.189,0.073c0.051,0.054,0.077,0.119,0.077,0.194c0,0.072-0.026,0.134-0.073,0.184
		C113.628,37.31,113.56,37.335,113.486,37.335"/>
	<path class="logo--central__path" fill="#000" d="M120.423,37.49c-0.648,0-1.253-0.119-1.791-0.355
		c-0.546-0.237-1.019-0.569-1.406-0.985c-0.392-0.418-0.699-0.917-0.916-1.483c-0.217-0.571-0.326-1.197-0.326-1.863
		c0-0.667,0.109-1.294,0.326-1.864c0.217-0.568,0.524-1.069,0.916-1.486c0.392-0.418,0.867-0.75,1.406-0.984
		c0.543-0.236,1.146-0.356,1.791-0.356c0.475,0,0.92,0.063,1.325,0.185c0.41,0.128,0.779,0.301,1.097,0.518
		c0.325,0.223,0.603,0.487,0.832,0.787c0.229,0.306,0.407,0.643,0.526,1.001c0.03,0.099,0.019,0.182-0.03,0.251
		c-0.148,0.162-0.398,0.121-0.455-0.066c-0.106-0.309-0.255-0.589-0.455-0.855c-0.197-0.262-0.438-0.491-0.715-0.68
		c-0.279-0.192-0.603-0.344-0.957-0.45c-0.365-0.111-0.748-0.163-1.168-0.163c-0.605,0-1.154,0.114-1.632,0.337
		c-0.48,0.221-0.892,0.526-1.224,0.907c-0.331,0.376-0.59,0.822-0.772,1.328c-0.176,0.502-0.268,1.037-0.268,1.59
		c0,0.548,0.092,1.084,0.271,1.593c0.182,0.506,0.438,0.952,0.77,1.323c0.332,0.38,0.744,0.685,1.224,0.908
		c0.478,0.222,1.026,0.335,1.632,0.335c0.424,0,0.817-0.055,1.172-0.161c0.349-0.105,0.674-0.258,0.963-0.453
		c0.283-0.196,0.524-0.426,0.719-0.688c0.203-0.267,0.357-0.558,0.46-0.864c0.034-0.107,0.116-0.167,0.229-0.167
		c0.094,0,0.168,0.035,0.223,0.1c0.037,0.048,0.072,0.128,0.035,0.253c-0.121,0.368-0.299,0.709-0.531,1.016
		c-0.235,0.306-0.516,0.572-0.84,0.795c-0.332,0.224-0.703,0.397-1.104,0.516C121.345,37.429,120.899,37.49,120.423,37.49"/>
	<path class="logo--central__path" fill="#000" d="M133.582,37.381c-0.168,0-0.268-0.102-0.268-0.27v-4.185h-5.685v4.185
		c0,0.168-0.103,0.27-0.271,0.27c-0.168,0-0.267-0.102-0.267-0.27V28.49c0-0.168,0.099-0.268,0.267-0.268
		c0.168,0,0.271,0.1,0.271,0.268v3.909h5.685V28.49c0-0.168,0.1-0.268,0.268-0.268c0.169,0,0.269,0.1,0.269,0.268v8.621
		C133.851,37.279,133.751,37.381,133.582,37.381"/>
	<path class="logo--central__path" fill="#000" d="M142.872,37.491c-0.361,0-0.707-0.052-1.033-0.151
		c-0.322-0.1-0.612-0.251-0.857-0.45c-0.248-0.2-0.447-0.449-0.59-0.737c-0.148-0.293-0.222-0.638-0.226-1.021
		c0.014-0.335,0.077-0.628,0.192-0.877c0.114-0.253,0.267-0.484,0.453-0.691c0.189-0.207,0.405-0.398,0.645-0.569
		c0.204-0.147,0.428-0.293,0.68-0.446l-0.567-0.642c-0.112-0.13-0.209-0.26-0.295-0.394c-0.09-0.138-0.17-0.287-0.242-0.446
		c-0.067-0.156-0.123-0.314-0.164-0.481c-0.043-0.172-0.061-0.331-0.061-0.488c0-0.332,0.06-0.627,0.177-0.877
		c0.114-0.248,0.271-0.458,0.463-0.623c0.199-0.166,0.425-0.289,0.664-0.366c0.498-0.159,1.02-0.157,1.517,0
		c0.241,0.077,0.467,0.198,0.666,0.364c0.194,0.168,0.351,0.379,0.465,0.625c0.115,0.256,0.176,0.551,0.176,0.877
		c0,0.283-0.057,0.555-0.168,0.803c-0.11,0.242-0.262,0.472-0.452,0.687c-0.191,0.211-0.414,0.41-0.66,0.594
		c-0.224,0.166-0.461,0.328-0.709,0.481l2.461,2.763c0.143-0.244,0.261-0.507,0.35-0.782c0.101-0.322,0.172-0.656,0.211-0.992
		c0.009-0.076,0.043-0.133,0.093-0.169c0.141-0.089,0.293-0.054,0.372,0.032c0.048,0.056,0.07,0.133,0.06,0.229
		c-0.051,0.393-0.137,0.771-0.258,1.131c-0.117,0.344-0.27,0.67-0.461,0.969l0.976,1.096c0.069,0.082,0.088,0.179,0.049,0.281
		c-0.039,0.104-0.127,0.162-0.246,0.162c-0.08,0-0.153-0.034-0.205-0.098l-0.891-0.998c-0.291,0.35-0.636,0.629-1.05,0.85
		C143.964,37.37,143.447,37.491,142.872,37.491 M142.488,32.941c-0.194,0.12-0.399,0.252-0.607,0.391
		c-0.215,0.143-0.412,0.308-0.59,0.493c-0.175,0.179-0.315,0.378-0.42,0.591c-0.105,0.212-0.16,0.453-0.16,0.714
		c0,0.299,0.06,0.563,0.178,0.789c0.117,0.225,0.279,0.416,0.478,0.571c0.205,0.158,0.433,0.272,0.693,0.353
		c0.258,0.078,0.532,0.118,0.812,0.118c0.491,0,0.934-0.104,1.309-0.309c0.349-0.193,0.658-0.451,0.918-0.772L142.488,32.941z
		 M142.872,28.641c-0.205,0-0.402,0.032-0.589,0.096c-0.182,0.061-0.344,0.155-0.481,0.276c-0.142,0.124-0.248,0.273-0.33,0.454
		c-0.08,0.179-0.121,0.392-0.121,0.63c0,0.127,0.015,0.256,0.046,0.398c0.036,0.131,0.082,0.262,0.137,0.385
		c0.052,0.115,0.117,0.237,0.195,0.36c0.077,0.115,0.159,0.219,0.241,0.31l0.634,0.717c0.282-0.18,0.52-0.34,0.725-0.49
		c0.222-0.16,0.419-0.334,0.582-0.518c0.156-0.174,0.275-0.358,0.359-0.547c0.081-0.187,0.122-0.394,0.122-0.615
		c0-0.236-0.041-0.447-0.122-0.63c-0.082-0.18-0.188-0.329-0.328-0.454c-0.14-0.121-0.304-0.215-0.481-0.276
		C143.271,28.673,143.072,28.641,142.872,28.641"/>
	<path class="logo--central__path" fill="#000" d="M155.315,37.335h-2.235c-0.166,0-0.265-0.099-0.265-0.267v-8.532
		c0-0.168,0.099-0.268,0.265-0.268h2.235c0.694,0,1.344,0.093,1.93,0.27c0.587,0.182,1.099,0.463,1.52,0.836
		c0.429,0.379,0.763,0.856,0.994,1.42c0.233,0.563,0.352,1.239,0.352,2.008c0,0.764-0.119,1.437-0.352,1.999
		c-0.233,0.566-0.569,1.043-0.994,1.415c-0.42,0.375-0.932,0.659-1.52,0.845C156.663,37.242,156.012,37.335,155.315,37.335
		 M153.35,36.807h1.966c0.694,0,1.315-0.091,1.846-0.271c0.529-0.18,0.974-0.442,1.326-0.781c0.355-0.339,0.625-0.759,0.804-1.248
		c0.18-0.497,0.272-1.069,0.272-1.704c0-0.639-0.093-1.211-0.272-1.704c-0.179-0.49-0.451-0.911-0.804-1.252
		c-0.352-0.337-0.797-0.599-1.326-0.776c-0.526-0.182-1.147-0.272-1.846-0.272h-1.966V36.807z"/>
	<path class="logo--central__path" fill="#000" d="M168.583,37.38c-0.082,0-0.153-0.037-0.205-0.108l-2.827-3.806h-2.021v3.646
		c0,0.168-0.101,0.268-0.269,0.268c-0.166,0-0.267-0.1-0.267-0.268v-8.575c0-0.168,0.101-0.269,0.267-0.269h2.342
		c0.412,0,0.793,0.06,1.133,0.176c0.347,0.114,0.647,0.285,0.895,0.507c0.25,0.22,0.447,0.492,0.582,0.807
		c0.134,0.316,0.205,0.677,0.205,1.076c0,0.396-0.063,0.75-0.185,1.055c-0.12,0.303-0.293,0.57-0.512,0.792
		c-0.211,0.214-0.468,0.388-0.767,0.518c-0.244,0.104-0.504,0.176-0.789,0.215l2.631,3.541c0.058,0.082,0.07,0.173,0.035,0.267
		C168.813,37.281,168.753,37.38,168.583,37.38 M163.53,32.939h2.073c0.338,0,0.642-0.048,0.927-0.146
		c0.286-0.1,0.521-0.235,0.717-0.413c0.198-0.183,0.349-0.398,0.463-0.659c0.108-0.263,0.164-0.562,0.164-0.887
		c0-0.295-0.049-0.574-0.147-0.827c-0.095-0.242-0.24-0.456-0.431-0.636c-0.19-0.178-0.428-0.319-0.707-0.418
		c-0.288-0.099-0.618-0.149-0.985-0.149h-2.073V32.939z"/>
	<path class="logo--central__path" fill="#000" d="M177.782,37.38c-0.08,0-0.19-0.03-0.244-0.176l-1.057-2.914h-4.271
		l-1.053,2.906c-0.021,0.056-0.054,0.102-0.099,0.133c-0.053,0.037-0.101,0.051-0.149,0.051c-0.101,0-0.176-0.037-0.23-0.108
		c-0.051-0.072-0.06-0.154-0.026-0.24l3.123-8.584c0.043-0.116,0.131-0.179,0.248-0.179h0.635c0.119,0,0.207,0.061,0.256,0.174
		l3.121,8.587c0.033,0.089,0.019,0.179-0.037,0.249C177.944,37.344,177.868,37.38,177.782,37.38 M172.397,33.765h3.889l-1.801-4.966
		h-0.281L172.397,33.765z"/>
	<path class="logo--central__path" fill="#000" d="M189.053,37.381c-0.073,0-0.139-0.025-0.188-0.076
		c-0.051-0.05-0.077-0.113-0.077-0.187v-8.32h-0.193l-3.202,6.135c-0.07,0.122-0.166,0.146-0.236,0.146h-0.327
		c-0.099,0-0.181-0.053-0.23-0.146l-3.33-6.135h-0.192v8.32c0,0.074-0.027,0.138-0.078,0.187c-0.091,0.093-0.274,0.1-0.373-0.002
		c-0.049-0.045-0.078-0.109-0.078-0.185V28.53c0-0.074,0.029-0.14,0.08-0.189c0.049-0.047,0.112-0.073,0.183-0.073h0.616
		c0.101,0,0.179,0.048,0.231,0.137l3.337,6.147l3.207-6.145c0.034-0.064,0.105-0.14,0.243-0.14h0.608
		c0.07,0,0.134,0.025,0.185,0.075c0.05,0.051,0.078,0.115,0.078,0.187v8.588c0,0.072-0.028,0.137-0.076,0.187
		C189.188,37.355,189.125,37.381,189.053,37.381"/>
	<path class="logo--central__path" fill="#000" d="M198.839,37.38c-0.082,0-0.192-0.03-0.244-0.178l-1.058-2.912h-4.273
		l-1.051,2.906c-0.021,0.057-0.054,0.104-0.101,0.135c-0.049,0.034-0.097,0.049-0.148,0.049c-0.127,0-0.194-0.061-0.231-0.11
		c-0.033-0.046-0.065-0.127-0.026-0.238l3.125-8.584c0.045-0.116,0.131-0.179,0.245-0.179h0.638c0.121,0,0.209,0.061,0.254,0.176
		l3.123,8.585c0.031,0.095,0.017,0.181-0.037,0.249C198.999,37.345,198.925,37.38,198.839,37.38 M193.453,33.765h3.89l-1.803-4.966
		h-0.279L193.453,33.765z"/>
	<path class="logo--central__path" fill="#000" d="M198.784,46.827H1.139c-0.125,0-0.224-0.1-0.224-0.225
		c0-0.124,0.099-0.222,0.224-0.222h197.645c0.122,0,0.227,0.098,0.227,0.222C199.011,46.728,198.906,46.827,198.784,46.827"/>
	<path class="logo--central__path" fill="#000" d="M34.229,7.966c-0.205-0.806-0.502-1.551-0.887-2.238
		c-0.385-0.684-0.847-1.301-1.388-1.85c-0.541-0.547-1.147-1.017-1.819-1.406c-0.674-0.391-1.398-0.689-2.179-0.894
		c-0.78-0.206-1.602-0.309-2.467-0.309c-0.867,0-1.69,0.103-2.469,0.309c-0.779,0.205-1.506,0.503-2.178,0.894
		c-0.674,0.389-1.279,0.859-1.82,1.406c-0.539,0.549-1.002,1.166-1.387,1.85c-0.386,0.687-0.681,1.432-0.886,2.238
		c-0.208,0.805-0.309,1.655-0.309,2.545c0,0.901,0.101,1.75,0.309,2.552c0.205,0.802,0.5,1.544,0.886,2.229
		c0.385,0.686,0.848,1.303,1.387,1.852c0.541,0.548,1.146,1.017,1.82,1.408c0.672,0.39,1.399,0.687,2.178,0.893
		c0.779,0.205,1.602,0.308,2.469,0.308c0.865,0,1.687-0.103,2.467-0.308c0.781-0.206,1.505-0.503,2.179-0.893
		c0.672-0.391,1.278-0.86,1.819-1.408c0.541-0.549,1.003-1.166,1.388-1.852c0.385-0.685,0.682-1.431,0.887-2.235
		c0.205-0.806,0.309-1.655,0.309-2.546C34.538,9.621,34.434,8.771,34.229,7.966 M32.332,13.605
		c-0.361,0.943-0.875,1.773-1.529,2.466c-0.655,0.695-1.444,1.242-2.345,1.629c-0.901,0.387-1.9,0.583-2.969,0.583
		c-1.071,0-2.07-0.196-2.971-0.583c-0.903-0.388-1.692-0.936-2.346-1.629c-0.651-0.691-1.165-1.521-1.527-2.466
		c-0.361-0.947-0.544-1.988-0.544-3.094c0-1.106,0.183-2.147,0.544-3.094c0.362-0.946,0.876-1.775,1.528-2.466
		c0.656-0.694,1.445-1.242,2.345-1.628c0.901-0.387,1.9-0.584,2.971-0.584c1.069,0,2.068,0.197,2.969,0.584
		c0.898,0.385,1.687,0.932,2.345,1.628c0.654,0.693,1.168,1.523,1.529,2.466c0.36,0.943,0.543,1.984,0.543,3.094
		C32.875,11.621,32.692,12.661,32.332,13.605"/>
	<path class="logo--central__path" fill="#000" d="M30.273,5.668c-0.557-0.628-1.248-1.133-2.052-1.505
		c-0.802-0.371-1.72-0.559-2.732-0.559c-1.021,0-1.943,0.188-2.739,0.559c-0.803,0.372-1.491,0.878-2.045,1.505
		c-0.558,0.628-0.993,1.369-1.29,2.202c-0.297,0.831-0.448,1.72-0.448,2.642c0,0.92,0.151,1.809,0.448,2.643
		c0.298,0.834,0.733,1.573,1.289,2.198c0.556,0.629,1.244,1.136,2.045,1.507c0.8,0.37,1.722,0.558,2.74,0.558
		c1.009,0,1.928-0.188,2.732-0.558c0.804-0.371,1.494-0.878,2.052-1.507c0.559-0.628,0.992-1.368,1.29-2.198
		c0.295-0.83,0.446-1.72,0.446-2.643c0-0.926-0.151-1.814-0.446-2.642C31.266,7.04,30.833,6.3,30.273,5.668 M29.981,12.703
		c-0.236,0.664-0.566,1.238-0.99,1.723c-0.424,0.484-0.934,0.861-1.53,1.131c-0.595,0.269-1.251,0.404-1.972,0.404
		c-0.721,0-1.377-0.135-1.973-0.404c-0.597-0.27-1.105-0.647-1.531-1.131c-0.424-0.485-0.752-1.059-0.988-1.723
		c-0.237-0.664-0.354-1.395-0.354-2.191c0-0.797,0.117-1.528,0.354-2.192c0.236-0.664,0.564-1.238,0.988-1.722
		c0.426-0.484,0.934-0.863,1.531-1.133c0.596-0.27,1.252-0.404,1.973-0.404c0.721,0,1.377,0.134,1.972,0.404
		c0.596,0.27,1.106,0.649,1.53,1.133c0.424,0.484,0.754,1.058,0.99,1.722c0.236,0.664,0.354,1.395,0.354,2.192
		C30.335,11.308,30.217,12.039,29.981,12.703"/>
	<path class="logo--central__path" fill="#000" d="M57.334,3.989l-3.039,9.303h8.046l-3.014-9.303H57.334z M56.145,12.182
		l2.146-7.006h0.012l2.123,7.006H56.145z"/>
	<path class="logo--central__path" fill="#000" d="M60.889,1.732h-5.053l-6.029,17.559h4.164l1.236-4.024h6.143l1.222,4.024h4.344
		L60.889,1.732z M64.217,18.129c-0.195,0-0.338-0.11-0.401-0.311l-1.186-3.661h-8.626l-1.187,3.662
		c-0.063,0.2-0.205,0.31-0.401,0.31c-0.2,0-0.312-0.097-0.371-0.178c-0.086-0.119-0.103-0.256-0.051-0.397L56.619,3.42
		c0.064-0.191,0.206-0.296,0.399-0.296h2.611c0.199,0,0.349,0.108,0.412,0.295l4.602,14.141c0.063,0.195-0.006,0.33-0.075,0.409
		C64.476,18.074,64.354,18.129,64.217,18.129"/>
	<path class="logo--central__path" fill="#000" d="M177.081,3.989l-3.039,9.303h8.046l-3.014-9.303H177.081z M175.893,12.182
		l2.146-7.006h0.012l2.123,7.006H175.893z"/>
	<path class="logo--central__path" fill="#000" d="M180.637,1.732h-5.054l-6.028,17.559h4.164l1.235-4.024h6.144l1.222,4.024
		h4.344L180.637,1.732z M183.965,18.129c-0.195,0-0.339-0.11-0.401-0.311l-1.186-3.661h-8.626l-1.187,3.662
		c-0.063,0.2-0.205,0.31-0.401,0.31c-0.199,0-0.312-0.097-0.371-0.178c-0.086-0.119-0.103-0.256-0.051-0.397l4.625-14.134
		c0.064-0.191,0.206-0.296,0.399-0.296h2.61c0.199,0,0.35,0.108,0.412,0.295l4.602,14.141c0.063,0.195-0.006,0.33-0.075,0.409
		C184.224,18.074,184.102,18.129,183.965,18.129"/>
</g>
</svg>
